<?xml version="1.0" encoding="utf-8"?>

<!DOCTYPE svg PUBLIC "-//W3C//DTD SVG 1.1//EN" "http://www.w3.org/Graphics/SVG/1.1/DTD/svg11.dtd">

<svg version="1.1"
     id="Connected_Dynkin_Diagrams"
     xmlns="http://www.w3.org/2000/svg"
     xmlns:xlink="http://www.w3.org/1999/xlink"
     width="375"
     height="625">

<text x="10" y="30" font-size="18">A</text>
<text x="22" y="35" font-size="14">n</text>
<g fill="#FFF" stroke="#000" stroke-width="2">
   <line x1="50"  y1="25" x2="150" y2="25"/>
   <line x1="150" y1="25" x2="300" y2="25" stroke-dasharray="10 10" />
   <line x1="300" y1="25" x2="350" y2="25"/>
   <circle cx="50"  cy="25" r="10"/>
   <circle cx="100" cy="25" r="10"/>
   <circle cx="150" cy="25" r="10"/>
   <circle cx="300" cy="25" r="10"/>
   <circle cx="350" cy="25" r="10"/>
</g>

<text x="10" y="80" font-size="18">B</text>
<text x="22" y="85" font-size="14">n</text>
<g fill="#FFF" stroke="#000" stroke-width="2">
   <line x1="50"  y1="75"   x2="100" y2="75"/>
   <line x1="100" y1="75"   x2="250" y2="75" stroke-dasharray="10 10"/>
   <line x1="250" y1="75"   x2="300" y2="75"/>
   <line x1="300" y1="72.5" x2="350" y2="72.5"/>
   <line x1="300" y1="77.5" x2="350" y2="77.5"/>
   <circle cx="50"  cy="75" r="10"/>
   <circle cx="100" cy="75" r="10"/>
   <circle cx="250" cy="75" r="10"/>
   <circle cx="350" cy="75" r="10"/>
   <circle cx="300" cy="75" r="10"/>
   <polyline fill="none" points="320,65 330,75 320,85"/>
</g>

<text x="10" y="130" font-size="18">C</text>
<text x="22" y="135" font-size="14">n</text>
<g fill="#FFF" stroke="#000" stroke-width="2">
   <line x1="50"  y1="125"   x2="100" y2="125"/>
   <line x1="100" y1="125"   x2="250" y2="125" stroke-dasharray="10 10"/>
   <line x1="250" y1="125"   x2="300" y2="125"/>
   <line x1="300" y1="122.5" x2="350" y2="122.5"/>
   <line x1="300" y1="127.5" x2="350" y2="127.5"/>
   <circle cx="50" cy="125" r="10"/>
   <circle cx="100" cy="125" r="10"/>
   <circle cx="250" cy="125" r="10"/>
   <circle cx="350" cy="125" r="10"/>
   <circle cx="300" cy="125" r="10"/>
   <polyline fill="none" points="330,115 320,125 330,135"/>
</g>

<text x="10" y="205" font-size="18">D</text>
<text x="22" y="210" font-size="14">n</text>
<g fill="#FFF" stroke="#000" stroke-width="2">
   <line x1="50"  y1="200" x2="100" y2="200"/>
   <line x1="100" y1="200" x2="250" y2="200" stroke-dasharray="10 10"/>
   <line x1="250" y1="200" x2="285" y2="165" />
   <line x1="250" y1="200" x2="285" y2="235" />
   <circle cx="50"  cy="200" r="10"/>
   <circle cx="250" cy="200" r="10"/>
   <circle cx="100" cy="200" r="10"/>
   <circle cx="285" cy="165" r="10"/>
   <circle cx="285" cy="235" r="10"/>
</g>

<text x="10" y="305" font-size="18">E</text>
<text x="22" y="310" font-size="14">6</text>
<g fill="#FFF" stroke="#000" stroke-width="2">
   <line x1="50"  y1="300" x2="250" y2="300"/>
   <line x1="150" y1="300" x2="150" y2="250"/>
   <circle cx="50" cy="300" r="10"/>
   <circle cx="100" cy="300" r="10"/>
   <circle cx="150" cy="300" r="10"/>
   <circle cx="150" cy="250" r="10"/>
   <circle cx="200" cy="300" r="10"/>
   <circle cx="250" cy="300" r="10"/>
</g>

<text x="10" y="405" font-size="18">E</text>
<text x="22" y="410" font-size="14">7</text>
<g fill="#FFF" stroke="#000" stroke-width="2">
   <line x1="50"  y1="400" x2="300" y2="400"/>
   <line x1="150" y1="400" x2="150" y2="350"/>
   <circle cx="50" cy="400" r="10"/>
   <circle cx="100" cy="400" r="10"/>
   <circle cx="150" cy="350" r="10"/>
   <circle cx="150" cy="400" r="10"/>
   <circle cx="200" cy="400" r="10"/>
   <circle cx="250" cy="400" r="10"/>
   <circle cx="300" cy="400" r="10"/>
</g>

<text x="10" y="505" font-size="18">E</text>
<text x="22" y="510" font-size="14">8</text>
<g fill="#FFF" stroke="#000" stroke-width="2">
   <line x1="50"  y1="500" x2="350" y2="500"/>
   <line x1="150" y1="500" x2="150" y2="450"/>
   <circle cx="50"  cy="500" r="10"/>
   <circle cx="100" cy="500" r="10"/>
   <circle cx="150" cy="450" r="10"/>
   <circle cx="150" cy="500" r="10"/>
   <circle cx="200" cy="500" r="10"/>
   <circle cx="250" cy="500" r="10"/>
   <circle cx="300" cy="500" r="10"/>
   <circle cx="350" cy="500" r="10"/>
</g>

<text x="10" y="552.5" font-size="18">F</text>
<text x="22" y="557.5" font-size="14">4</text>
<g fill="#FFF" stroke="#000" stroke-width="2">
   <line x1="50"  y1="550"   x2="100" y2="550"/>
   <line x1="150" y1="550"   x2="200" y2="550"/>
   <line x1="100" y1="547.5" x2="150" y2="547.5"/>
   <line x1="100" y1="552.5" x2="150" y2="552.5"/>
   <circle cx="50"  cy="550" r="10"/>
   <circle cx="150" cy="550" r="10"/>
   <circle cx="100" cy="550" r="10"/>
   <circle cx="200" cy="550" r="10"/>
   <polyline fill="none" points="120,540 130,550 120,560"/>
</g>

<text x="10" y="605" font-size="18">G</text>
<text x="22" y="610" font-size="14">2</text>
<g fill="#FFF" stroke="#000" stroke-width="2">
   <line x1="50" y1="595" x2="100" y2="595"/>
   <line x1="50" y1="600" x2="100" y2="600"/>
   <line x1="50" y1="605" x2="100" y2="605"/>
   <circle cx="100" cy="600" r="10"/>
   <circle cx="50" cy="600" r="10"/>
   <polyline fill="none" points="80,590 70,600 80,610"/>
</g>

</svg>
